<svg version="1.1" viewBox="0.0 0.0 959.0 100.0" fill="none" stroke="none" stroke-linecap="square" stroke-miterlimit="10" xmlns:xlink="http://www.w3.org/1999/xlink" xmlns="http://www.w3.org/2000/svg"><clipPath id="p.0"><path d="m0 0l959.0 0l0 100.0l-959.0 0l0 -100.0z" clip-rule="nonzero"/></clipPath><g clip-path="url(#p.0)"><path fill="#000000" fill-opacity="0.0" d="m0 0l959.0 0l0 100.0l-959.0 0z" fill-rule="evenodd"/><path fill="#ffffff" d="m-1.3254594 0l960.31494 0l0 100.0l-960.31494 0z" fill-rule="evenodd"/><path stroke="#ffffff" stroke-width="1.0" stroke-linejoin="round" stroke-linecap="butt" d="m-1.3254594 0l960.31494 0l0 100.0l-960.31494 0z" fill-rule="evenodd"/><defs><linearGradient id="p.1" gradientUnits="userSpaceOnUse" gradientTransform="matrix(-8.512538832317677 0.0 0.0 -8.512538832317677 0.0 0.0)" spreadMethod="pad" x1="-112.7928532510047" y1="-8.512477258836356" x2="-112.79288215695121" y2="6.157343224421823E-5"><stop offset="0.0" stop-color="#ffffff"/><stop offset="1.0" stop-color="#fbe739"/></linearGradient></defs><path fill="url(#p.1)" d="m16.329546 64.29465l33.830345 8.164673l72.00244 -6.463005l23.421577 -9.866333l72.868805 1.360939l6.071991 3.0616302l40.771164 8.505386l54.652863 1.0202179l23.42157 -6.8037224l12.143982 -8.845139l36.434387 -2.0414124l30.362427 3.7420998l22.555206 6.1242332l33.832825 5.7825356l53.784027 -6.463009l-0.86883545 -3.742096l13.012817 -8.50539l18.218445 -0.33974838l32.96393 -2.3811607l28.627258 2.3811607l18.215942 10.545826l19.084778 4.4225693l40.77118 -0.34072113l18.218445 -1.7006912l26.023193 -12.246513l42.50885 -1.0202179l15.61438 2.7209053l26.892029 3.4023514l30.362366 -3.0616264l9.542419 -7.8249207l40.77118 -5.7835083l8.673584 1.0211906l6.0719604 7.823944l20.820007 5.442787l12.146484 -1.7006874l0 -50.687717l-960.30725 0l0 65.65612z" fill-rule="evenodd"/></g></svg>