<svg version="1.1" viewBox="0.0 0.0 961.2230971128608 181.60629921259843" fill="none" stroke="none" stroke-linecap="square" stroke-miterlimit="10" xmlns:xlink="http://www.w3.org/1999/xlink" xmlns="http://www.w3.org/2000/svg"><clipPath id="p.0"><path d="m0 0l961.2231 0l0 181.6063l-961.2231 0l0 -181.6063z" clip-rule="nonzero"/></clipPath><g clip-path="url(#p.0)"><path fill="#000000" fill-opacity="0.0" d="m0 0l961.2231 0l0 181.6063l-961.2231 0z" fill-rule="evenodd"/><path fill="#ffffff" d="m-29.0 -120.0l1042.0157 0l0 406.01575l-1042.0157 0z" fill-rule="evenodd"/><path stroke="#ffffff" stroke-width="1.0" stroke-linejoin="round" stroke-linecap="butt" d="m-29.0 -120.0l1042.0157 0l0 406.01575l-1042.0157 0z" fill-rule="evenodd"/><defs><linearGradient id="p.1" gradientUnits="userSpaceOnUse" gradientTransform="matrix(13.746486256227184 0.0 0.0 13.746486256227184 0.0 0.0)" spreadMethod="pad" x1="-0.15408374449606743" y1="-4.454045853511982" x2="-0.15413351739707185" y2="9.292440402625093"><stop offset="0.0" stop-color="#fbe73a"/><stop offset="1.0" stop-color="#ffffff"/></linearGradient></defs><path fill="url(#p.1)" d="m-2.1181102 -49.805775c161.62729 -39.553806 323.25458 39.553806 484.8819 0c161.62726 -39.553806 323.25458 39.553806 484.8819 0l0 166.12599c-161.62732 39.553795 -323.25464 -39.55381 -484.8819 0c-161.62732 39.553795 -323.2546 -39.55381 -484.8819 0z" fill-rule="evenodd"/></g></svg>